<svg width="27" height="28" viewBox="0 0 27 28" fill="none" xmlns="http://www.w3.org/2000/svg">
<path fill-rule="evenodd" clip-rule="evenodd" d="M16.541 8.77455H19.1884V6.19076H16.541V8.77455ZM19.1884 21.7092H16.541V13.9586L9.82689 21.7084C9.82689 21.7084 9.82689 21.7084 9.82609 21.7084V21.7092H7.17872V6.18997H9.82609V19.1246V19.1254L16.541 11.3693H19.1884V21.7092ZM26.3415 9.7252C26.3415 7.77778 25.2769 5.97889 23.5491 5.00557L15.9627 0.729991C14.2349 -0.24333 12.1066 -0.24333 10.3788 0.729991L2.79235 5.00479C1.06455 5.97889 0 7.77778 0 9.7252V18.2756C0 20.2222 1.06455 22.0219 2.79235 22.9952L10.3788 27.27C12.1066 28.2433 14.2349 28.2433 15.9627 27.27L23.5491 22.9952C25.2769 22.0219 26.3415 20.2222 26.3415 18.2756V9.7252Z" fill="white"></path>
</svg>