<svg width="400" height="251" viewBox="0 0 400 251" fill="none" xmlns="http://www.w3.org/2000/svg">
<path d="M339.429 41H60.5714C49.2101 41 40 51.5637 40 64.5946V211.405C40 224.436 49.2101 235 60.5714 235H339.429C350.79 235 360 224.436 360 211.405V64.5946C360 51.5637 350.79 41 339.429 41Z" fill="url(#paint0_linear_115_13715)"/>
<path d="M161.542 15H74.4583C68.1301 15 63 20.7743 63 27.8972V41H173V27.8972C173 20.7743 167.87 15 161.542 15Z" fill="white" fill-opacity="0.38"/>
<path d="M200 220C244.183 220 280 184.183 280 140C280 95.8172 244.183 60 200 60C155.817 60 120 95.8172 120 140C120 184.183 155.817 220 200 220Z" fill="white" fill-opacity="0.16"/>
<path d="M200 188C226.51 188 248 166.51 248 140C248 113.49 226.51 92 200 92C173.49 92 152 113.49 152 140C152 166.51 173.49 188 200 188Z" fill="white" fill-opacity="0.3"/>
<path d="M200 157C209.389 157 217 149.389 217 140C217 130.611 209.389 123 200 123C190.611 123 183 130.611 183 140C183 149.389 190.611 157 200 157Z" fill="white" fill-opacity="0.3"/>
<path d="M337.118 58H311.882C308.081 58 305 61.4189 305 65.6364V78.3636C305 82.5811 308.081 86 311.882 86H337.118C340.919 86 344 82.5811 344 78.3636V65.6364C344 61.4189 340.919 58 337.118 58Z" fill="white" fill-opacity="0.2"/>
<defs>
<linearGradient id="paint0_linear_115_13715" x1="40" y1="41" x2="40" y2="235" gradientUnits="userSpaceOnUse">
<stop stop-color="white" stop-opacity="0.65"/>
<stop offset="1" stop-color="white" stop-opacity="0.1"/>
</linearGradient>
</defs>
</svg>
