<svg preserveAspectRatio="none" width="100%" height="100%" overflow="visible" style="display: block;" viewBox="0 0 28.4311 25.11" fill="none" xmlns="http://www.w3.org/2000/svg">
<g id="Group">
<path id="Vector" d="M10.35 13.51L5.25 21.09H12.55V25.11H0.269989V21.43L7.15999 11.17C8.04999 9.83001 8.39 8.83001 8.39 7.46001C8.39 5.34001 7.59 4.06001 6.14 4.06001C4.69 4.06001 3.87 5.31001 3.87 7.46001V8.36H0V7.46001C0 3.37001 2.18 0 6.14 0C10.1 0 12.26 3.37001 12.26 7.46001C12.26 9.99001 11.8 11.36 10.35 13.51Z" fill="var(--fill-0, white)"/>
<path id="Union" d="M21.2729 24.96H16.9692L23.2524 4.49709H16.1499V0.842789H28.4311L21.2729 24.96Z" fill="var(--fill-0, white)"/>
</g>
</svg>
