<svg width="20" height="20" viewBox="0 0 20 20" fill="none" xmlns="http://www.w3.org/2000/svg">
<path fill-rule="evenodd" clip-rule="evenodd" d="M12.8774 12.3314C15.0172 13.0306 16.8508 14.5056 18.0407 16.5627C18.1594 16.7564 18.1638 16.9993 18.0519 17.1971C17.9401 17.3948 17.7297 17.5163 17.5025 17.5144C17.2753 17.5125 17.067 17.3873 16.9586 17.1877C15.4867 14.6439 12.8852 13.1252 10 13.1252C7.11487 13.1252 4.51331 14.6439 3.04143 17.1877C2.93301 17.3873 2.72476 17.5125 2.49755 17.5144C2.27034 17.5163 2.05997 17.3948 1.94814 17.1971C1.8363 16.9993 1.84061 16.7564 1.9594 16.5627C3.14925 14.5049 4.98284 13.0299 7.12268 12.3314C4.94707 11.0363 3.9049 8.44716 4.57654 6.00592C5.24819 3.56468 7.46809 1.87305 10 1.87305C12.532 1.87305 14.7519 3.56468 15.4235 6.00592C16.0952 8.44716 15.053 11.0363 12.8774 12.3314ZM10 3.12517C7.58378 3.12517 5.62503 5.08393 5.62503 7.50017C5.62761 9.91535 7.58485 11.8726 10 11.8752C12.4163 11.8752 14.375 9.91642 14.375 7.50017C14.375 5.08393 12.4163 3.12517 10 3.12517Z" fill="white"></path>
</svg>